<svg class="" height="2038" viewBox="0 0 1052.0 2038" width="1052.0" xmlns="http://www.w3.org/2000/svg">
<g>
<style>/* <![CDATA[ */

path {
    stroke-width:2;
    stroke:#000;
    fill:transparent;
}
text {
    font:13px monospace;
    text-anchor:middle;
}
text.label{
    text-anchor:start;
}
text.comment{
    font:12px monospace;
    opacity:0.8;
}
rect{
    stroke-width:2;
    stroke:#000;
    fill:transparent;
}
rect.group-box {
    stroke:gray;
    stroke-dasharray:10 5;
    fill:none;
}

/* ]]> */
</style><g>
<path d="M1 11v20m10 -20v20m-10 -10h20"></path></g><g>
<path d="M21 21h0.0"></path><path d="M1031.0 21h0.0"></path><path d="M21.0 21a10 10 0 0 0 10 -10v0a10 10 0 0 1 10 -10"></path><g>
<path d="M41.0 1h970.0"></path></g><path d="M1011.0 1a10 10 0 0 1 10 10v0a10 10 0 0 0 10 10"></path><path d="M21.0 21h20"></path><g>
<path d="M41.0 21h0.0"></path><path d="M1011.0 21h0.0"></path><path d="M41.0 21h10"></path><g>
<path d="M51.0 21h0.0"></path><path d="M1001.0 21h0.0"></path><path d="M51.0 21h20"></path><g class="non-terminal ">
<path d="M71.0 21h418.75"></path><path d="M562.25 21h418.75"></path><rect height="22" width="72.5" x="489.75" y="10"></rect><text x="526.0" y="25">literal</text></g><path d="M981.0 21h20"></path><path d="M51.0 21a10 10 0 0 1 10 10v49a10 10 0 0 0 10 10"></path><g>
<path d="M71.0 90h0.0"></path><path d="M981.0 90h0.0"></path><g class="terminal ">
<path d="M71.0 90h0.0"></path><path d="M98.5 90h0.0"></path><rect height="22" rx="10" ry="10" width="27.5" x="71.0" y="79"></rect><text x="84.75" y="94">&#91;</text></g><path d="M98.5 90h10"></path><g>
<path d="M108.5 90h0.0"></path><path d="M981.0 90h0.0"></path><path d="M108.5 90a10 10 0 0 0 10 -10v-19a10 10 0 0 1 10 -10"></path><g class="terminal ">
<path d="M128.5 51h402.5"></path><path d="M558.5 51h402.5"></path><rect height="22" rx="10" ry="10" width="27.5" x="531.0" y="40"></rect><text x="544.75" y="55">&#91;</text></g><path d="M961.0 51a10 10 0 0 1 10 10v19a10 10 0 0 0 10 10"></path><path d="M108.5 90h20"></path><g>
<path d="M128.5 90h0.0"></path><path d="M961.0 90h0.0"></path><g>
<path d="M128.5 90h0.0"></path><path d="M248.5 90h0.0"></path><path d="M128.5 90a10 10 0 0 0 10 -10v0a10 10 0 0 1 10 -10"></path><g>
<path d="M148.5 70h80"></path></g><path d="M228.5 70a10 10 0 0 1 10 10v0a10 10 0 0 0 10 10"></path><path d="M128.5 90h20"></path><g class="non-terminal ">
<path d="M148.5 90h0.0"></path><path d="M228.5 90h0.0"></path><text class="comment" x="188.5" y="95">whitespace</text></g><path d="M228.5 90h20"></path></g><g>
<path d="M248.5 90h0.0"></path><path d="M803.5 90h0.0"></path><path d="M248.5 90h20"></path><g>
<path d="M268.5 90h8.75"></path><path d="M774.75 90h8.75"></path><g class="terminal ">
<path d="M277.25 90h0.0"></path><path d="M334.75 90h0.0"></path><rect height="22" rx="10" ry="10" width="57.5" x="277.25" y="79"></rect><text x="306.0" y="94">month</text></g><path d="M334.75 90h10"></path><g>
<path d="M344.75 90h0.0"></path><path d="M774.75 90h0.0"></path><path d="M344.75 90a10 10 0 0 0 10 -10v0a10 10 0 0 1 10 -10"></path><g>
<path d="M364.75 70h390.0"></path></g><path d="M754.75 70a10 10 0 0 1 10 10v0a10 10 0 0 0 10 10"></path><path d="M344.75 90h20"></path><g>
<path d="M364.75 90h0.0"></path><path d="M754.75 90h0.0"></path><path d="M364.75 90h10"></path><g>
<path d="M374.75 90h0.0"></path><path d="M744.75 90h0.0"></path><g class="non-terminal ">
<path d="M374.75 90h0.0"></path><path d="M454.75 90h0.0"></path><text class="comment" x="414.75" y="95">whitespace</text></g><path d="M454.75 90h10"></path><g>
<path d="M464.75 90h0.0"></path><path d="M744.75 90h0.0"></path><path d="M464.75 90h20"></path><g>
<path d="M484.75 90h26.25"></path><path d="M698.5 90h26.25"></path><g class="terminal ">
<path d="M511.0 90h0.0"></path><path d="M591.0 90h0.0"></path><rect height="22" rx="10" ry="10" width="80.0" x="511.0" y="79"></rect><text x="551.0" y="94">padding:</text></g><path d="M591.0 90h10"></path><g>
<path d="M601.0 90h0.0"></path><path d="M698.5 90h0.0"></path><path d="M601.0 90h20"></path><g class="terminal ">
<path d="M621.0 90h3.75"></path><path d="M674.75 90h3.75"></path><rect height="22" rx="10" ry="10" width="50.0" x="624.75" y="79"></rect><text x="649.75" y="94">zero</text></g><path d="M678.5 90h20"></path><path d="M601.0 90a10 10 0 0 1 10 10v10a10 10 0 0 0 10 10"></path><g class="terminal ">
<path d="M621.0 120h0.0"></path><path d="M678.5 120h0.0"></path><rect height="22" rx="10" ry="10" width="57.5" x="621.0" y="109"></rect><text x="649.75" y="124">space</text></g><path d="M678.5 120a10 10 0 0 0 10 -10v-10a10 10 0 0 1 10 -10"></path><path d="M601.0 90a10 10 0 0 1 10 10v40a10 10 0 0 0 10 10"></path><g class="terminal ">
<path d="M621.0 150h3.75"></path><path d="M674.75 150h3.75"></path><rect height="22" rx="10" ry="10" width="50.0" x="624.75" y="139"></rect><text x="649.75" y="154">none</text></g><path d="M678.5 150a10 10 0 0 0 10 -10v-40a10 10 0 0 1 10 -10"></path></g></g><path d="M724.75 90h20"></path><path d="M464.75 90a10 10 0 0 1 10 10v70a10 10 0 0 0 10 10"></path><g>
<path d="M484.75 180h22.5"></path><path d="M702.25 180h22.5"></path><g class="terminal ">
<path d="M507.25 180h0.0"></path><path d="M564.75 180h0.0"></path><rect height="22" rx="10" ry="10" width="57.5" x="507.25" y="169"></rect><text x="536.0" y="184">repr:</text></g><path d="M564.75 180h10"></path><g>
<path d="M574.75 180h0.0"></path><path d="M702.25 180h0.0"></path><path d="M574.75 180h20"></path><g class="terminal ">
<path d="M594.75 180h0.0"></path><path d="M682.25 180h0.0"></path><rect height="22" rx="10" ry="10" width="87.5" x="594.75" y="169"></rect><text x="638.5" y="184">numerical</text></g><path d="M682.25 180h20"></path><path d="M574.75 180a10 10 0 0 1 10 10v10a10 10 0 0 0 10 10"></path><g class="terminal ">
<path d="M594.75 210h18.75"></path><path d="M663.5 210h18.75"></path><rect height="22" rx="10" ry="10" width="50.0" x="613.5" y="199"></rect><text x="638.5" y="214">long</text></g><path d="M682.25 210a10 10 0 0 0 10 -10v-10a10 10 0 0 1 10 -10"></path><path d="M574.75 180a10 10 0 0 1 10 10v40a10 10 0 0 0 10 10"></path><g class="terminal ">
<path d="M594.75 240h15.0"></path><path d="M667.25 240h15.0"></path><rect height="22" rx="10" ry="10" width="57.5" x="609.75" y="229"></rect><text x="638.5" y="244">short</text></g><path d="M682.25 240a10 10 0 0 0 10 -10v-40a10 10 0 0 1 10 -10"></path></g></g><path d="M724.75 180a10 10 0 0 0 10 -10v-70a10 10 0 0 1 10 -10"></path><path d="M464.75 90a10 10 0 0 1 10 10v160a10 10 0 0 0 10 10"></path><g>
<path d="M484.75 270h0.0"></path><path d="M724.75 270h0.0"></path><g class="terminal ">
<path d="M484.75 270h0.0"></path><path d="M617.25 270h0.0"></path><rect height="22" rx="10" ry="10" width="132.5" x="484.75" y="259"></rect><text x="551.0" y="274">case&#95;sensitive:</text></g><path d="M617.25 270h10"></path><g>
<path d="M627.25 270h0.0"></path><path d="M724.75 270h0.0"></path><path d="M627.25 270h20"></path><g class="terminal ">
<path d="M647.25 270h3.75"></path><path d="M701.0 270h3.75"></path><rect height="22" rx="10" ry="10" width="50.0" x="651.0" y="259"></rect><text x="676.0" y="274">true</text></g><path d="M704.75 270h20"></path><path d="M627.25 270a10 10 0 0 1 10 10v10a10 10 0 0 0 10 10"></path><g class="terminal ">
<path d="M647.25 300h0.0"></path><path d="M704.75 300h0.0"></path><rect height="22" rx="10" ry="10" width="57.5" x="647.25" y="289"></rect><text x="676.0" y="304">false</text></g><path d="M704.75 300a10 10 0 0 0 10 -10v-10a10 10 0 0 1 10 -10"></path></g></g><path d="M724.75 270a10 10 0 0 0 10 -10v-160a10 10 0 0 1 10 -10"></path></g></g><path d="M744.75 90h10"></path><path d="M374.75 90a10 10 0 0 0 -10 10v209a10 10 0 0 0 10 10"></path><g>
<path d="M374.75 319h370.0"></path></g><path d="M744.75 319a10 10 0 0 0 10 -10v-209a10 10 0 0 0 -10 -10"></path></g><path d="M754.75 90h20"></path></g></g><path d="M783.5 90h20"></path><path d="M248.5 90a10 10 0 0 1 10 10v237a10 10 0 0 0 10 10"></path><g>
<path d="M268.5 347h1.25"></path><path d="M782.25 347h1.25"></path><g class="terminal ">
<path d="M269.75 347h0.0"></path><path d="M342.25 347h0.0"></path><rect height="22" rx="10" ry="10" width="72.5" x="269.75" y="336"></rect><text x="306.0" y="351">weekday</text></g><path d="M342.25 347h10"></path><g>
<path d="M352.25 347h0.0"></path><path d="M782.25 347h0.0"></path><path d="M352.25 347a10 10 0 0 0 10 -10v0a10 10 0 0 1 10 -10"></path><g>
<path d="M372.25 327h390.0"></path></g><path d="M762.25 327a10 10 0 0 1 10 10v0a10 10 0 0 0 10 10"></path><path d="M352.25 347h20"></path><g>
<path d="M372.25 347h0.0"></path><path d="M762.25 347h0.0"></path><path d="M372.25 347h10"></path><g>
<path d="M382.25 347h0.0"></path><path d="M752.25 347h0.0"></path><g class="non-terminal ">
<path d="M382.25 347h0.0"></path><path d="M462.25 347h0.0"></path><text class="comment" x="422.25" y="352">whitespace</text></g><path d="M462.25 347h10"></path><g>
<path d="M472.25 347h0.0"></path><path d="M752.25 347h0.0"></path><path d="M472.25 347h20"></path><g>
<path d="M492.25 347h33.75"></path><path d="M698.5 347h33.75"></path><g class="terminal ">
<path d="M526.0 347h0.0"></path><path d="M583.5 347h0.0"></path><rect height="22" rx="10" ry="10" width="57.5" x="526.0" y="336"></rect><text x="554.75" y="351">repr:</text></g><path d="M583.5 347h10"></path><g>
<path d="M593.5 347h0.0"></path><path d="M698.5 347h0.0"></path><path d="M593.5 347h20"></path><g class="terminal ">
<path d="M613.5 347h7.5"></path><path d="M671.0 347h7.5"></path><rect height="22" rx="10" ry="10" width="50.0" x="621.0" y="336"></rect><text x="646.0" y="351">long</text></g><path d="M678.5 347h20"></path><path d="M593.5 347a10 10 0 0 1 10 10v10a10 10 0 0 0 10 10"></path><g class="terminal ">
<path d="M613.5 377h3.75"></path><path d="M674.75 377h3.75"></path><rect height="22" rx="10" ry="10" width="57.5" x="617.25" y="366"></rect><text x="646.0" y="381">short</text></g><path d="M678.5 377a10 10 0 0 0 10 -10v-10a10 10 0 0 1 10 -10"></path><path d="M593.5 347a10 10 0 0 1 10 10v40a10 10 0 0 0 10 10"></path><g class="terminal ">
<path d="M613.5 407h0.0"></path><path d="M678.5 407h0.0"></path><rect height="22" rx="10" ry="10" width="65.0" x="613.5" y="396"></rect><text x="646.0" y="411">sunday</text></g><path d="M678.5 407a10 10 0 0 0 10 -10v-40a10 10 0 0 1 10 -10"></path><path d="M593.5 347a10 10 0 0 1 10 10v70a10 10 0 0 0 10 10"></path><g class="terminal ">
<path d="M613.5 437h0.0"></path><path d="M678.5 437h0.0"></path><rect height="22" rx="10" ry="10" width="65.0" x="613.5" y="426"></rect><text x="646.0" y="441">monday</text></g><path d="M678.5 437a10 10 0 0 0 10 -10v-70a10 10 0 0 1 10 -10"></path></g></g><path d="M732.25 347h20"></path><path d="M472.25 347a10 10 0 0 1 10 10v100a10 10 0 0 0 10 10"></path><g>
<path d="M492.25 467h11.25"></path><path d="M721.0 467h11.25"></path><g class="terminal ">
<path d="M503.5 467h0.0"></path><path d="M613.5 467h0.0"></path><rect height="22" rx="10" ry="10" width="110.0" x="503.5" y="456"></rect><text x="558.5" y="471">one&#95;indexed:</text></g><path d="M613.5 467h10"></path><g>
<path d="M623.5 467h0.0"></path><path d="M721.0 467h0.0"></path><path d="M623.5 467h20"></path><g class="terminal ">
<path d="M643.5 467h0.0"></path><path d="M701.0 467h0.0"></path><rect height="22" rx="10" ry="10" width="57.5" x="643.5" y="456"></rect><text x="672.25" y="471">false</text></g><path d="M701.0 467h20"></path><path d="M623.5 467a10 10 0 0 1 10 10v10a10 10 0 0 0 10 10"></path><g class="terminal ">
<path d="M643.5 497h3.75"></path><path d="M697.25 497h3.75"></path><rect height="22" rx="10" ry="10" width="50.0" x="647.25" y="486"></rect><text x="672.25" y="501">true</text></g><path d="M701.0 497a10 10 0 0 0 10 -10v-10a10 10 0 0 1 10 -10"></path></g></g><path d="M732.25 467a10 10 0 0 0 10 -10v-100a10 10 0 0 1 10 -10"></path><path d="M472.25 347a10 10 0 0 1 10 10v160a10 10 0 0 0 10 10"></path><g>
<path d="M492.25 527h0.0"></path><path d="M732.25 527h0.0"></path><g class="terminal ">
<path d="M492.25 527h0.0"></path><path d="M624.75 527h0.0"></path><rect height="22" rx="10" ry="10" width="132.5" x="492.25" y="516"></rect><text x="558.5" y="531">case&#95;sensitive:</text></g><path d="M624.75 527h10"></path><g>
<path d="M634.75 527h0.0"></path><path d="M732.25 527h0.0"></path><path d="M634.75 527h20"></path><g class="terminal ">
<path d="M654.75 527h3.75"></path><path d="M708.5 527h3.75"></path><rect height="22" rx="10" ry="10" width="50.0" x="658.5" y="516"></rect><text x="683.5" y="531">true</text></g><path d="M712.25 527h20"></path><path d="M634.75 527a10 10 0 0 1 10 10v10a10 10 0 0 0 10 10"></path><g class="terminal ">
<path d="M654.75 557h0.0"></path><path d="M712.25 557h0.0"></path><rect height="22" rx="10" ry="10" width="57.5" x="654.75" y="546"></rect><text x="683.5" y="561">false</text></g><path d="M712.25 557a10 10 0 0 0 10 -10v-10a10 10 0 0 1 10 -10"></path></g></g><path d="M732.25 527a10 10 0 0 0 10 -10v-160a10 10 0 0 1 10 -10"></path></g></g><path d="M752.25 347h10"></path><path d="M382.25 347a10 10 0 0 0 -10 10v209a10 10 0 0 0 10 10"></path><g>
<path d="M382.25 576h370.0"></path></g><path d="M752.25 576a10 10 0 0 0 10 -10v-209a10 10 0 0 0 -10 -10"></path></g><path d="M762.25 347h20"></path></g></g><path d="M783.5 347a10 10 0 0 0 10 -10v-237a10 10 0 0 1 10 -10"></path><path d="M248.5 90a10 10 0 0 1 10 10v494a10 10 0 0 0 10 10"></path><g>
<path d="M268.5 604h12.5"></path><path d="M771.0 604h12.5"></path><g class="terminal ">
<path d="M281.0 604h0.0"></path><path d="M383.5 604h0.0"></path><rect height="22" rx="10" ry="10" width="102.5" x="281.0" y="593"></rect><text x="332.25" y="608">week&#95;number</text></g><path d="M383.5 604h10"></path><g>
<path d="M393.5 604h0.0"></path><path d="M771.0 604h0.0"></path><path d="M393.5 604a10 10 0 0 0 10 -10v0a10 10 0 0 1 10 -10"></path><g>
<path d="M413.5 584h337.5"></path></g><path d="M751.0 584a10 10 0 0 1 10 10v0a10 10 0 0 0 10 10"></path><path d="M393.5 604h20"></path><g>
<path d="M413.5 604h0.0"></path><path d="M751.0 604h0.0"></path><path d="M413.5 604h10"></path><g>
<path d="M423.5 604h0.0"></path><path d="M741.0 604h0.0"></path><g class="non-terminal ">
<path d="M423.5 604h0.0"></path><path d="M503.5 604h0.0"></path><text class="comment" x="463.5" y="609">whitespace</text></g><path d="M503.5 604h10"></path><g>
<path d="M513.5 604h0.0"></path><path d="M741.0 604h0.0"></path><path d="M513.5 604h20"></path><g>
<path d="M533.5 604h0.0"></path><path d="M721.0 604h0.0"></path><g class="terminal ">
<path d="M533.5 604h0.0"></path><path d="M613.5 604h0.0"></path><rect height="22" rx="10" ry="10" width="80.0" x="533.5" y="593"></rect><text x="573.5" y="608">padding:</text></g><path d="M613.5 604h10"></path><g>
<path d="M623.5 604h0.0"></path><path d="M721.0 604h0.0"></path><path d="M623.5 604h20"></path><g class="terminal ">
<path d="M643.5 604h3.75"></path><path d="M697.25 604h3.75"></path><rect height="22" rx="10" ry="10" width="50.0" x="647.25" y="593"></rect><text x="672.25" y="608">zero</text></g><path d="M701.0 604h20"></path><path d="M623.5 604a10 10 0 0 1 10 10v10a10 10 0 0 0 10 10"></path><g class="terminal ">
<path d="M643.5 634h0.0"></path><path d="M701.0 634h0.0"></path><rect height="22" rx="10" ry="10" width="57.5" x="643.5" y="623"></rect><text x="672.25" y="638">space</text></g><path d="M701.0 634a10 10 0 0 0 10 -10v-10a10 10 0 0 1 10 -10"></path><path d="M623.5 604a10 10 0 0 1 10 10v40a10 10 0 0 0 10 10"></path><g class="terminal ">
<path d="M643.5 664h3.75"></path><path d="M697.25 664h3.75"></path><rect height="22" rx="10" ry="10" width="50.0" x="647.25" y="653"></rect><text x="672.25" y="668">none</text></g><path d="M701.0 664a10 10 0 0 0 10 -10v-40a10 10 0 0 1 10 -10"></path></g></g><path d="M721.0 604h20"></path><path d="M513.5 604a10 10 0 0 1 10 10v70a10 10 0 0 0 10 10"></path><g>
<path d="M533.5 694h7.5"></path><path d="M713.5 694h7.5"></path><g class="terminal ">
<path d="M541.0 694h0.0"></path><path d="M598.5 694h0.0"></path><rect height="22" rx="10" ry="10" width="57.5" x="541.0" y="683"></rect><text x="569.75" y="698">repr:</text></g><path d="M598.5 694h10"></path><g>
<path d="M608.5 694h0.0"></path><path d="M713.5 694h0.0"></path><path d="M608.5 694h20"></path><g class="terminal ">
<path d="M628.5 694h11.25"></path><path d="M682.25 694h11.25"></path><rect height="22" rx="10" ry="10" width="42.5" x="639.75" y="683"></rect><text x="661.0" y="698">iso</text></g><path d="M693.5 694h20"></path><path d="M608.5 694a10 10 0 0 1 10 10v10a10 10 0 0 0 10 10"></path><g class="terminal ">
<path d="M628.5 724h0.0"></path><path d="M693.5 724h0.0"></path><rect height="22" rx="10" ry="10" width="65.0" x="628.5" y="713"></rect><text x="661.0" y="728">sunday</text></g><path d="M693.5 724a10 10 0 0 0 10 -10v-10a10 10 0 0 1 10 -10"></path><path d="M608.5 694a10 10 0 0 1 10 10v40a10 10 0 0 0 10 10"></path><g class="terminal ">
<path d="M628.5 754h0.0"></path><path d="M693.5 754h0.0"></path><rect height="22" rx="10" ry="10" width="65.0" x="628.5" y="743"></rect><text x="661.0" y="758">monday</text></g><path d="M693.5 754a10 10 0 0 0 10 -10v-40a10 10 0 0 1 10 -10"></path></g></g><path d="M721.0 694a10 10 0 0 0 10 -10v-70a10 10 0 0 1 10 -10"></path></g></g><path d="M741.0 604h10"></path><path d="M423.5 604a10 10 0 0 0 -10 10v149a10 10 0 0 0 10 10"></path><g>
<path d="M423.5 773h317.5"></path></g><path d="M741.0 773a10 10 0 0 0 10 -10v-149a10 10 0 0 0 -10 -10"></path></g><path d="M751.0 604h20"></path></g></g><path d="M783.5 604a10 10 0 0 0 10 -10v-494a10 10 0 0 1 10 -10"></path><path d="M248.5 90a10 10 0 0 1 10 10v691a10 10 0 0 0 10 10"></path><g>
<path d="M268.5 801h35.0"></path><path d="M748.5 801h35.0"></path><g class="terminal ">
<path d="M303.5 801h0.0"></path><path d="M353.5 801h0.0"></path><rect height="22" rx="10" ry="10" width="50.0" x="303.5" y="790"></rect><text x="328.5" y="805">year</text></g><path d="M353.5 801h10"></path><g>
<path d="M363.5 801h0.0"></path><path d="M748.5 801h0.0"></path><path d="M363.5 801a10 10 0 0 0 10 -10v0a10 10 0 0 1 10 -10"></path><g>
<path d="M383.5 781h345.0"></path></g><path d="M728.5 781a10 10 0 0 1 10 10v0a10 10 0 0 0 10 10"></path><path d="M363.5 801h20"></path><g>
<path d="M383.5 801h0.0"></path><path d="M728.5 801h0.0"></path><path d="M383.5 801h10"></path><g>
<path d="M393.5 801h0.0"></path><path d="M718.5 801h0.0"></path><g class="non-terminal ">
<path d="M393.5 801h0.0"></path><path d="M473.5 801h0.0"></path><text class="comment" x="433.5" y="806">whitespace</text></g><path d="M473.5 801h10"></path><g>
<path d="M483.5 801h0.0"></path><path d="M718.5 801h0.0"></path><path d="M483.5 801h20"></path><g>
<path d="M503.5 801h3.75"></path><path d="M694.75 801h3.75"></path><g class="terminal ">
<path d="M507.25 801h0.0"></path><path d="M587.25 801h0.0"></path><rect height="22" rx="10" ry="10" width="80.0" x="507.25" y="790"></rect><text x="547.25" y="805">padding:</text></g><path d="M587.25 801h10"></path><g>
<path d="M597.25 801h0.0"></path><path d="M694.75 801h0.0"></path><path d="M597.25 801h20"></path><g class="terminal ">
<path d="M617.25 801h3.75"></path><path d="M671.0 801h3.75"></path><rect height="22" rx="10" ry="10" width="50.0" x="621.0" y="790"></rect><text x="646.0" y="805">zero</text></g><path d="M674.75 801h20"></path><path d="M597.25 801a10 10 0 0 1 10 10v10a10 10 0 0 0 10 10"></path><g class="terminal ">
<path d="M617.25 831h0.0"></path><path d="M674.75 831h0.0"></path><rect height="22" rx="10" ry="10" width="57.5" x="617.25" y="820"></rect><text x="646.0" y="835">space</text></g><path d="M674.75 831a10 10 0 0 0 10 -10v-10a10 10 0 0 1 10 -10"></path><path d="M597.25 801a10 10 0 0 1 10 10v40a10 10 0 0 0 10 10"></path><g class="terminal ">
<path d="M617.25 861h3.75"></path><path d="M671.0 861h3.75"></path><rect height="22" rx="10" ry="10" width="50.0" x="621.0" y="850"></rect><text x="646.0" y="865">none</text></g><path d="M674.75 861a10 10 0 0 0 10 -10v-40a10 10 0 0 1 10 -10"></path></g></g><path d="M698.5 801h20"></path><path d="M483.5 801a10 10 0 0 1 10 10v70a10 10 0 0 0 10 10"></path><g>
<path d="M503.5 891h3.75"></path><path d="M694.75 891h3.75"></path><g class="terminal ">
<path d="M507.25 891h0.0"></path><path d="M564.75 891h0.0"></path><rect height="22" rx="10" ry="10" width="57.5" x="507.25" y="880"></rect><text x="536.0" y="895">repr:</text></g><path d="M564.75 891h10"></path><g>
<path d="M574.75 891h0.0"></path><path d="M694.75 891h0.0"></path><path d="M574.75 891h20"></path><g class="terminal ">
<path d="M594.75 891h15.0"></path><path d="M659.75 891h15.0"></path><rect height="22" rx="10" ry="10" width="50.0" x="609.75" y="880"></rect><text x="634.75" y="895">full</text></g><path d="M674.75 891h20"></path><path d="M574.75 891a10 10 0 0 1 10 10v10a10 10 0 0 0 10 10"></path><g class="terminal ">
<path d="M594.75 921h0.0"></path><path d="M674.75 921h0.0"></path><rect height="22" rx="10" ry="10" width="80.0" x="594.75" y="910"></rect><text x="634.75" y="925">last&#95;two</text></g><path d="M674.75 921a10 10 0 0 0 10 -10v-10a10 10 0 0 1 10 -10"></path></g></g><path d="M698.5 891a10 10 0 0 0 10 -10v-70a10 10 0 0 1 10 -10"></path><path d="M483.5 801a10 10 0 0 1 10 10v130a10 10 0 0 0 10 10"></path><g>
<path d="M503.5 951h3.75"></path><path d="M694.75 951h3.75"></path><g class="terminal ">
<path d="M507.25 951h0.0"></path><path d="M564.75 951h0.0"></path><rect height="22" rx="10" ry="10" width="57.5" x="507.25" y="940"></rect><text x="536.0" y="955">base:</text></g><path d="M564.75 951h10"></path><g>
<path d="M574.75 951h0.0"></path><path d="M694.75 951h0.0"></path><path d="M574.75 951h20"></path><g class="terminal ">
<path d="M594.75 951h0.0"></path><path d="M674.75 951h0.0"></path><rect height="22" rx="10" ry="10" width="80.0" x="594.75" y="940"></rect><text x="634.75" y="955">calendar</text></g><path d="M674.75 951h20"></path><path d="M574.75 951a10 10 0 0 1 10 10v10a10 10 0 0 0 10 10"></path><g class="terminal ">
<path d="M594.75 981h0.0"></path><path d="M674.75 981h0.0"></path><rect height="22" rx="10" ry="10" width="80.0" x="594.75" y="970"></rect><text x="634.75" y="985">iso&#95;week</text></g><path d="M674.75 981a10 10 0 0 0 10 -10v-10a10 10 0 0 1 10 -10"></path></g></g><path d="M698.5 951a10 10 0 0 0 10 -10v-130a10 10 0 0 1 10 -10"></path><path d="M483.5 801a10 10 0 0 1 10 10v190a10 10 0 0 0 10 10"></path><g>
<path d="M503.5 1011h0.0"></path><path d="M698.5 1011h0.0"></path><g class="terminal ">
<path d="M503.5 1011h0.0"></path><path d="M561.0 1011h0.0"></path><rect height="22" rx="10" ry="10" width="57.5" x="503.5" y="1000"></rect><text x="532.25" y="1015">sign:</text></g><path d="M561.0 1011h10"></path><g>
<path d="M571.0 1011h0.0"></path><path d="M698.5 1011h0.0"></path><path d="M571.0 1011h20"></path><g class="terminal ">
<path d="M591.0 1011h0.0"></path><path d="M678.5 1011h0.0"></path><rect height="22" rx="10" ry="10" width="87.5" x="591.0" y="1000"></rect><text x="634.75" y="1015">automatic</text></g><path d="M678.5 1011h20"></path><path d="M571.0 1011a10 10 0 0 1 10 10v10a10 10 0 0 0 10 10"></path><g class="terminal ">
<path d="M591.0 1041h0.0"></path><path d="M678.5 1041h0.0"></path><rect height="22" rx="10" ry="10" width="87.5" x="591.0" y="1030"></rect><text x="634.75" y="1045">mandatory</text></g><path d="M678.5 1041a10 10 0 0 0 10 -10v-10a10 10 0 0 1 10 -10"></path></g></g><path d="M698.5 1011a10 10 0 0 0 10 -10v-190a10 10 0 0 1 10 -10"></path></g></g><path d="M718.5 801h10"></path><path d="M393.5 801a10 10 0 0 0 -10 10v239a10 10 0 0 0 10 10"></path><g>
<path d="M393.5 1060h325.0"></path></g><path d="M718.5 1060a10 10 0 0 0 10 -10v-239a10 10 0 0 0 -10 -10"></path></g><path d="M728.5 801h20"></path></g></g><path d="M783.5 801a10 10 0 0 0 10 -10v-691a10 10 0 0 1 10 -10"></path><path d="M248.5 90a10 10 0 0 1 10 10v978a10 10 0 0 0 10 10"></path><g>
<path d="M268.5 1088h38.75"></path><path d="M744.75 1088h38.75"></path><g class="terminal ">
<path d="M307.25 1088h0.0"></path><path d="M357.25 1088h0.0"></path><rect height="22" rx="10" ry="10" width="50.0" x="307.25" y="1077"></rect><text x="332.25" y="1092">hour</text></g><path d="M357.25 1088h10"></path><g>
<path d="M367.25 1088h0.0"></path><path d="M744.75 1088h0.0"></path><path d="M367.25 1088a10 10 0 0 0 10 -10v0a10 10 0 0 1 10 -10"></path><g>
<path d="M387.25 1068h337.5"></path></g><path d="M724.75 1068a10 10 0 0 1 10 10v0a10 10 0 0 0 10 10"></path><path d="M367.25 1088h20"></path><g>
<path d="M387.25 1088h0.0"></path><path d="M724.75 1088h0.0"></path><path d="M387.25 1088h10"></path><g>
<path d="M397.25 1088h0.0"></path><path d="M714.75 1088h0.0"></path><g class="non-terminal ">
<path d="M397.25 1088h0.0"></path><path d="M477.25 1088h0.0"></path><text class="comment" x="437.25" y="1093">whitespace</text></g><path d="M477.25 1088h10"></path><g>
<path d="M487.25 1088h0.0"></path><path d="M714.75 1088h0.0"></path><path d="M487.25 1088h20"></path><g>
<path d="M507.25 1088h0.0"></path><path d="M694.75 1088h0.0"></path><g class="terminal ">
<path d="M507.25 1088h0.0"></path><path d="M587.25 1088h0.0"></path><rect height="22" rx="10" ry="10" width="80.0" x="507.25" y="1077"></rect><text x="547.25" y="1092">padding:</text></g><path d="M587.25 1088h10"></path><g>
<path d="M597.25 1088h0.0"></path><path d="M694.75 1088h0.0"></path><path d="M597.25 1088h20"></path><g class="terminal ">
<path d="M617.25 1088h3.75"></path><path d="M671.0 1088h3.75"></path><rect height="22" rx="10" ry="10" width="50.0" x="621.0" y="1077"></rect><text x="646.0" y="1092">zero</text></g><path d="M674.75 1088h20"></path><path d="M597.25 1088a10 10 0 0 1 10 10v10a10 10 0 0 0 10 10"></path><g class="terminal ">
<path d="M617.25 1118h0.0"></path><path d="M674.75 1118h0.0"></path><rect height="22" rx="10" ry="10" width="57.5" x="617.25" y="1107"></rect><text x="646.0" y="1122">space</text></g><path d="M674.75 1118a10 10 0 0 0 10 -10v-10a10 10 0 0 1 10 -10"></path><path d="M597.25 1088a10 10 0 0 1 10 10v40a10 10 0 0 0 10 10"></path><g class="terminal ">
<path d="M617.25 1148h3.75"></path><path d="M671.0 1148h3.75"></path><rect height="22" rx="10" ry="10" width="50.0" x="621.0" y="1137"></rect><text x="646.0" y="1152">none</text></g><path d="M674.75 1148a10 10 0 0 0 10 -10v-40a10 10 0 0 1 10 -10"></path></g></g><path d="M694.75 1088h20"></path><path d="M487.25 1088a10 10 0 0 1 10 10v70a10 10 0 0 0 10 10"></path><g>
<path d="M507.25 1178h22.5"></path><path d="M672.25 1178h22.5"></path><g class="terminal ">
<path d="M529.75 1178h0.0"></path><path d="M587.25 1178h0.0"></path><rect height="22" rx="10" ry="10" width="57.5" x="529.75" y="1167"></rect><text x="558.5" y="1182">repr:</text></g><path d="M587.25 1178h10"></path><g>
<path d="M597.25 1178h0.0"></path><path d="M672.25 1178h0.0"></path><path d="M597.25 1178h20"></path><g class="terminal ">
<path d="M617.25 1178h0.0"></path><path d="M652.25 1178h0.0"></path><rect height="22" rx="10" ry="10" width="35.0" x="617.25" y="1167"></rect><text x="634.75" y="1182">24</text></g><path d="M652.25 1178h20"></path><path d="M597.25 1178a10 10 0 0 1 10 10v10a10 10 0 0 0 10 10"></path><g class="terminal ">
<path d="M617.25 1208h0.0"></path><path d="M652.25 1208h0.0"></path><rect height="22" rx="10" ry="10" width="35.0" x="617.25" y="1197"></rect><text x="634.75" y="1212">12</text></g><path d="M652.25 1208a10 10 0 0 0 10 -10v-10a10 10 0 0 1 10 -10"></path></g></g><path d="M694.75 1178a10 10 0 0 0 10 -10v-70a10 10 0 0 1 10 -10"></path></g></g><path d="M714.75 1088h10"></path><path d="M397.25 1088a10 10 0 0 0 -10 10v119a10 10 0 0 0 10 10"></path><g>
<path d="M397.25 1227h317.5"></path></g><path d="M714.75 1227a10 10 0 0 0 10 -10v-119a10 10 0 0 0 -10 -10"></path></g><path d="M724.75 1088h20"></path></g></g><path d="M783.5 1088a10 10 0 0 0 10 -10v-978a10 10 0 0 1 10 -10"></path><path d="M248.5 90a10 10 0 0 1 10 10v1145a10 10 0 0 0 10 10"></path><g>
<path d="M268.5 1255h5.0"></path><path d="M778.5 1255h5.0"></path><g class="terminal ">
<path d="M273.5 1255h0.0"></path><path d="M338.5 1255h0.0"></path><rect height="22" rx="10" ry="10" width="65.0" x="273.5" y="1244"></rect><text x="306.0" y="1259">period</text></g><path d="M338.5 1255h10"></path><g>
<path d="M348.5 1255h0.0"></path><path d="M778.5 1255h0.0"></path><path d="M348.5 1255a10 10 0 0 0 10 -10v0a10 10 0 0 1 10 -10"></path><g>
<path d="M368.5 1235h390.0"></path></g><path d="M758.5 1235a10 10 0 0 1 10 10v0a10 10 0 0 0 10 10"></path><path d="M348.5 1255h20"></path><g>
<path d="M368.5 1255h0.0"></path><path d="M758.5 1255h0.0"></path><path d="M368.5 1255h10"></path><g>
<path d="M378.5 1255h0.0"></path><path d="M748.5 1255h0.0"></path><g class="non-terminal ">
<path d="M378.5 1255h0.0"></path><path d="M458.5 1255h0.0"></path><text class="comment" x="418.5" y="1260">whitespace</text></g><path d="M458.5 1255h10"></path><g>
<path d="M468.5 1255h0.0"></path><path d="M748.5 1255h0.0"></path><path d="M468.5 1255h20"></path><g>
<path d="M488.5 1255h37.5"></path><path d="M691.0 1255h37.5"></path><g class="terminal ">
<path d="M526.0 1255h0.0"></path><path d="M583.5 1255h0.0"></path><rect height="22" rx="10" ry="10" width="57.5" x="526.0" y="1244"></rect><text x="554.75" y="1259">case:</text></g><path d="M583.5 1255h10"></path><g>
<path d="M593.5 1255h0.0"></path><path d="M691.0 1255h0.0"></path><path d="M593.5 1255h20"></path><g class="terminal ">
<path d="M613.5 1255h0.0"></path><path d="M671.0 1255h0.0"></path><rect height="22" rx="10" ry="10" width="57.5" x="613.5" y="1244"></rect><text x="642.25" y="1259">lower</text></g><path d="M671.0 1255h20"></path><path d="M593.5 1255a10 10 0 0 1 10 10v10a10 10 0 0 0 10 10"></path><g class="terminal ">
<path d="M613.5 1285h0.0"></path><path d="M671.0 1285h0.0"></path><rect height="22" rx="10" ry="10" width="57.5" x="613.5" y="1274"></rect><text x="642.25" y="1289">upper</text></g><path d="M671.0 1285a10 10 0 0 0 10 -10v-10a10 10 0 0 1 10 -10"></path></g></g><path d="M728.5 1255h20"></path><path d="M468.5 1255a10 10 0 0 1 10 10v40a10 10 0 0 0 10 10"></path><g>
<path d="M488.5 1315h0.0"></path><path d="M728.5 1315h0.0"></path><g class="terminal ">
<path d="M488.5 1315h0.0"></path><path d="M621.0 1315h0.0"></path><rect height="22" rx="10" ry="10" width="132.5" x="488.5" y="1304"></rect><text x="554.75" y="1319">case&#95;sensitive:</text></g><path d="M621.0 1315h10"></path><g>
<path d="M631.0 1315h0.0"></path><path d="M728.5 1315h0.0"></path><path d="M631.0 1315h20"></path><g class="terminal ">
<path d="M651.0 1315h3.75"></path><path d="M704.75 1315h3.75"></path><rect height="22" rx="10" ry="10" width="50.0" x="654.75" y="1304"></rect><text x="679.75" y="1319">true</text></g><path d="M708.5 1315h20"></path><path d="M631.0 1315a10 10 0 0 1 10 10v10a10 10 0 0 0 10 10"></path><g class="terminal ">
<path d="M651.0 1345h0.0"></path><path d="M708.5 1345h0.0"></path><rect height="22" rx="10" ry="10" width="57.5" x="651.0" y="1334"></rect><text x="679.75" y="1349">false</text></g><path d="M708.5 1345a10 10 0 0 0 10 -10v-10a10 10 0 0 1 10 -10"></path></g></g><path d="M728.5 1315a10 10 0 0 0 10 -10v-40a10 10 0 0 1 10 -10"></path></g></g><path d="M748.5 1255h10"></path><path d="M378.5 1255a10 10 0 0 0 -10 10v89a10 10 0 0 0 10 10"></path><g>
<path d="M378.5 1364h370.0"></path></g><path d="M748.5 1364a10 10 0 0 0 10 -10v-89a10 10 0 0 0 -10 -10"></path></g><path d="M758.5 1255h20"></path></g></g><path d="M783.5 1255a10 10 0 0 0 10 -10v-1145a10 10 0 0 1 10 -10"></path><path d="M248.5 90a10 10 0 0 1 10 10v1282a10 10 0 0 0 10 10"></path><g>
<path d="M268.5 1392h45.0"></path><path d="M738.5 1392h45.0"></path><g class="terminal ">
<path d="M313.5 1392h0.0"></path><path d="M401.0 1392h0.0"></path><rect height="22" rx="10" ry="10" width="87.5" x="313.5" y="1381"></rect><text x="357.25" y="1396">subsecond</text></g><path d="M401.0 1392h10"></path><g>
<path d="M411.0 1392h0.0"></path><path d="M738.5 1392h0.0"></path><path d="M411.0 1392a10 10 0 0 0 10 -10v0a10 10 0 0 1 10 -10"></path><g>
<path d="M431.0 1372h287.5"></path></g><path d="M718.5 1372a10 10 0 0 1 10 10v0a10 10 0 0 0 10 10"></path><path d="M411.0 1392h20"></path><g>
<path d="M431.0 1392h0.0"></path><path d="M718.5 1392h0.0"></path><g class="non-terminal ">
<path d="M431.0 1392h0.0"></path><path d="M511.0 1392h0.0"></path><text class="comment" x="471.0" y="1397">whitespace</text></g><path d="M511.0 1392h10"></path><g>
<path d="M521.0 1392h0.0"></path><path d="M718.5 1392h0.0"></path><path d="M521.0 1392h20"></path><g>
<path d="M541.0 1392h0.0"></path><path d="M698.5 1392h0.0"></path><g class="terminal ">
<path d="M541.0 1392h0.0"></path><path d="M613.5 1392h0.0"></path><rect height="22" rx="10" ry="10" width="72.5" x="541.0" y="1381"></rect><text x="577.25" y="1396">digits:</text></g><path d="M613.5 1392h10"></path><g>
<path d="M623.5 1392h0.0"></path><path d="M698.5 1392h0.0"></path><path d="M623.5 1392h20"></path><g class="terminal ">
<path d="M643.5 1392h0.0"></path><path d="M678.5 1392h0.0"></path><rect height="22" rx="10" ry="10" width="35.0" x="643.5" y="1381"></rect><text x="661.0" y="1396">1+</text></g><path d="M678.5 1392h20"></path><path d="M623.5 1392a10 10 0 0 1 10 10v10a10 10 0 0 0 10 10"></path><g class="terminal ">
<path d="M643.5 1422h3.75"></path><path d="M674.75 1422h3.75"></path><rect height="22" rx="10" ry="10" width="27.5" x="647.25" y="1411"></rect><text x="661.0" y="1426">1</text></g><path d="M678.5 1422a10 10 0 0 0 10 -10v-10a10 10 0 0 1 10 -10"></path><path d="M623.5 1392a10 10 0 0 1 10 10v40a10 10 0 0 0 10 10"></path><g class="terminal ">
<path d="M643.5 1452h3.75"></path><path d="M674.75 1452h3.75"></path><rect height="22" rx="10" ry="10" width="27.5" x="647.25" y="1441"></rect><text x="661.0" y="1456">2</text></g><path d="M678.5 1452a10 10 0 0 0 10 -10v-40a10 10 0 0 1 10 -10"></path><path d="M623.5 1392a10 10 0 0 1 10 10v70a10 10 0 0 0 10 10"></path><g class="terminal ">
<path d="M643.5 1482h3.75"></path><path d="M674.75 1482h3.75"></path><rect height="22" rx="10" ry="10" width="27.5" x="647.25" y="1471"></rect><text x="661.0" y="1486">3</text></g><path d="M678.5 1482a10 10 0 0 0 10 -10v-70a10 10 0 0 1 10 -10"></path><path d="M623.5 1392a10 10 0 0 1 10 10v100a10 10 0 0 0 10 10"></path><g class="terminal ">
<path d="M643.5 1512h3.75"></path><path d="M674.75 1512h3.75"></path><rect height="22" rx="10" ry="10" width="27.5" x="647.25" y="1501"></rect><text x="661.0" y="1516">4</text></g><path d="M678.5 1512a10 10 0 0 0 10 -10v-100a10 10 0 0 1 10 -10"></path><path d="M623.5 1392a10 10 0 0 1 10 10v130a10 10 0 0 0 10 10"></path><g class="terminal ">
<path d="M643.5 1542h3.75"></path><path d="M674.75 1542h3.75"></path><rect height="22" rx="10" ry="10" width="27.5" x="647.25" y="1531"></rect><text x="661.0" y="1546">5</text></g><path d="M678.5 1542a10 10 0 0 0 10 -10v-130a10 10 0 0 1 10 -10"></path><path d="M623.5 1392a10 10 0 0 1 10 10v160a10 10 0 0 0 10 10"></path><g class="terminal ">
<path d="M643.5 1572h3.75"></path><path d="M674.75 1572h3.75"></path><rect height="22" rx="10" ry="10" width="27.5" x="647.25" y="1561"></rect><text x="661.0" y="1576">6</text></g><path d="M678.5 1572a10 10 0 0 0 10 -10v-160a10 10 0 0 1 10 -10"></path><path d="M623.5 1392a10 10 0 0 1 10 10v190a10 10 0 0 0 10 10"></path><g class="terminal ">
<path d="M643.5 1602h3.75"></path><path d="M674.75 1602h3.75"></path><rect height="22" rx="10" ry="10" width="27.5" x="647.25" y="1591"></rect><text x="661.0" y="1606">7</text></g><path d="M678.5 1602a10 10 0 0 0 10 -10v-190a10 10 0 0 1 10 -10"></path><path d="M623.5 1392a10 10 0 0 1 10 10v220a10 10 0 0 0 10 10"></path><g class="terminal ">
<path d="M643.5 1632h3.75"></path><path d="M674.75 1632h3.75"></path><rect height="22" rx="10" ry="10" width="27.5" x="647.25" y="1621"></rect><text x="661.0" y="1636">8</text></g><path d="M678.5 1632a10 10 0 0 0 10 -10v-220a10 10 0 0 1 10 -10"></path><path d="M623.5 1392a10 10 0 0 1 10 10v250a10 10 0 0 0 10 10"></path><g class="terminal ">
<path d="M643.5 1662h3.75"></path><path d="M674.75 1662h3.75"></path><rect height="22" rx="10" ry="10" width="27.5" x="647.25" y="1651"></rect><text x="661.0" y="1666">9</text></g><path d="M678.5 1662a10 10 0 0 0 10 -10v-250a10 10 0 0 1 10 -10"></path></g></g><path d="M698.5 1392h20"></path></g></g><path d="M718.5 1392h20"></path></g></g><path d="M783.5 1392a10 10 0 0 0 10 -10v-1282a10 10 0 0 1 10 -10"></path><path d="M248.5 90a10 10 0 0 1 10 10v1591a10 10 0 0 0 10 10"></path><g>
<path d="M268.5 1701h8.75"></path><path d="M774.75 1701h8.75"></path><g class="terminal ">
<path d="M277.25 1701h0.0"></path><path d="M379.75 1701h0.0"></path><rect height="22" rx="10" ry="10" width="102.5" x="277.25" y="1690"></rect><text x="328.5" y="1705">offset&#95;hour</text></g><path d="M379.75 1701h10"></path><g>
<path d="M389.75 1701h0.0"></path><path d="M774.75 1701h0.0"></path><path d="M389.75 1701a10 10 0 0 0 10 -10v0a10 10 0 0 1 10 -10"></path><g>
<path d="M409.75 1681h345.0"></path></g><path d="M754.75 1681a10 10 0 0 1 10 10v0a10 10 0 0 0 10 10"></path><path d="M389.75 1701h20"></path><g>
<path d="M409.75 1701h0.0"></path><path d="M754.75 1701h0.0"></path><path d="M409.75 1701h10"></path><g>
<path d="M419.75 1701h0.0"></path><path d="M744.75 1701h0.0"></path><g class="non-terminal ">
<path d="M419.75 1701h0.0"></path><path d="M499.75 1701h0.0"></path><text class="comment" x="459.75" y="1706">whitespace</text></g><path d="M499.75 1701h10"></path><g>
<path d="M509.75 1701h0.0"></path><path d="M744.75 1701h0.0"></path><path d="M509.75 1701h20"></path><g>
<path d="M529.75 1701h3.75"></path><path d="M721.0 1701h3.75"></path><g class="terminal ">
<path d="M533.5 1701h0.0"></path><path d="M613.5 1701h0.0"></path><rect height="22" rx="10" ry="10" width="80.0" x="533.5" y="1690"></rect><text x="573.5" y="1705">padding:</text></g><path d="M613.5 1701h10"></path><g>
<path d="M623.5 1701h0.0"></path><path d="M721.0 1701h0.0"></path><path d="M623.5 1701h20"></path><g class="terminal ">
<path d="M643.5 1701h3.75"></path><path d="M697.25 1701h3.75"></path><rect height="22" rx="10" ry="10" width="50.0" x="647.25" y="1690"></rect><text x="672.25" y="1705">zero</text></g><path d="M701.0 1701h20"></path><path d="M623.5 1701a10 10 0 0 1 10 10v10a10 10 0 0 0 10 10"></path><g class="terminal ">
<path d="M643.5 1731h0.0"></path><path d="M701.0 1731h0.0"></path><rect height="22" rx="10" ry="10" width="57.5" x="643.5" y="1720"></rect><text x="672.25" y="1735">space</text></g><path d="M701.0 1731a10 10 0 0 0 10 -10v-10a10 10 0 0 1 10 -10"></path><path d="M623.5 1701a10 10 0 0 1 10 10v40a10 10 0 0 0 10 10"></path><g class="terminal ">
<path d="M643.5 1761h3.75"></path><path d="M697.25 1761h3.75"></path><rect height="22" rx="10" ry="10" width="50.0" x="647.25" y="1750"></rect><text x="672.25" y="1765">none</text></g><path d="M701.0 1761a10 10 0 0 0 10 -10v-40a10 10 0 0 1 10 -10"></path></g></g><path d="M724.75 1701h20"></path><path d="M509.75 1701a10 10 0 0 1 10 10v70a10 10 0 0 0 10 10"></path><g>
<path d="M529.75 1791h0.0"></path><path d="M724.75 1791h0.0"></path><g class="terminal ">
<path d="M529.75 1791h0.0"></path><path d="M587.25 1791h0.0"></path><rect height="22" rx="10" ry="10" width="57.5" x="529.75" y="1780"></rect><text x="558.5" y="1795">sign:</text></g><path d="M587.25 1791h10"></path><g>
<path d="M597.25 1791h0.0"></path><path d="M724.75 1791h0.0"></path><path d="M597.25 1791h20"></path><g class="terminal ">
<path d="M617.25 1791h0.0"></path><path d="M704.75 1791h0.0"></path><rect height="22" rx="10" ry="10" width="87.5" x="617.25" y="1780"></rect><text x="661.0" y="1795">automatic</text></g><path d="M704.75 1791h20"></path><path d="M597.25 1791a10 10 0 0 1 10 10v10a10 10 0 0 0 10 10"></path><g class="terminal ">
<path d="M617.25 1821h0.0"></path><path d="M704.75 1821h0.0"></path><rect height="22" rx="10" ry="10" width="87.5" x="617.25" y="1810"></rect><text x="661.0" y="1825">mandatory</text></g><path d="M704.75 1821a10 10 0 0 0 10 -10v-10a10 10 0 0 1 10 -10"></path></g></g><path d="M724.75 1791a10 10 0 0 0 10 -10v-70a10 10 0 0 1 10 -10"></path></g></g><path d="M744.75 1701h10"></path><path d="M419.75 1701a10 10 0 0 0 -10 10v119a10 10 0 0 0 10 10"></path><g>
<path d="M419.75 1840h325.0"></path></g><path d="M744.75 1840a10 10 0 0 0 10 -10v-119a10 10 0 0 0 -10 -10"></path></g><path d="M754.75 1701h20"></path></g></g><path d="M783.5 1701a10 10 0 0 0 10 -10v-1591a10 10 0 0 1 10 -10"></path><path d="M248.5 90a10 10 0 0 1 10 10v1758a10 10 0 0 0 10 10"></path><g>
<path d="M268.5 1868h0.0"></path><path d="M783.5 1868h0.0"></path><g>
<path d="M268.5 1868h0.0"></path><path d="M426.0 1868h0.0"></path><path d="M268.5 1868h20"></path><g class="terminal ">
<path d="M288.5 1868h37.5"></path><path d="M368.5 1868h37.5"></path><rect height="22" rx="10" ry="10" width="42.5" x="326.0" y="1857"></rect><text x="347.25" y="1872">day</text></g><path d="M406.0 1868h20"></path><path d="M268.5 1868a10 10 0 0 1 10 10v10a10 10 0 0 0 10 10"></path><g class="terminal ">
<path d="M288.5 1898h22.5"></path><path d="M383.5 1898h22.5"></path><rect height="22" rx="10" ry="10" width="72.5" x="311.0" y="1887"></rect><text x="347.25" y="1902">ordinal</text></g><path d="M406.0 1898a10 10 0 0 0 10 -10v-10a10 10 0 0 1 10 -10"></path><path d="M268.5 1868a10 10 0 0 1 10 10v40a10 10 0 0 0 10 10"></path><g class="terminal ">
<path d="M288.5 1928h26.25"></path><path d="M379.75 1928h26.25"></path><rect height="22" rx="10" ry="10" width="65.0" x="314.75" y="1917"></rect><text x="347.25" y="1932">minute</text></g><path d="M406.0 1928a10 10 0 0 0 10 -10v-40a10 10 0 0 1 10 -10"></path><path d="M268.5 1868a10 10 0 0 1 10 10v70a10 10 0 0 0 10 10"></path><g class="terminal ">
<path d="M288.5 1958h26.25"></path><path d="M379.75 1958h26.25"></path><rect height="22" rx="10" ry="10" width="65.0" x="314.75" y="1947"></rect><text x="347.25" y="1962">second</text></g><path d="M406.0 1958a10 10 0 0 0 10 -10v-70a10 10 0 0 1 10 -10"></path><path d="M268.5 1868a10 10 0 0 1 10 10v100a10 10 0 0 0 10 10"></path><g class="terminal ">
<path d="M288.5 1988h0.0"></path><path d="M406.0 1988h0.0"></path><rect height="22" rx="10" ry="10" width="117.5" x="288.5" y="1977"></rect><text x="347.25" y="1992">offset&#95;minute</text></g><path d="M406.0 1988a10 10 0 0 0 10 -10v-100a10 10 0 0 1 10 -10"></path><path d="M268.5 1868a10 10 0 0 1 10 10v130a10 10 0 0 0 10 10"></path><g class="terminal ">
<path d="M288.5 2018h0.0"></path><path d="M406.0 2018h0.0"></path><rect height="22" rx="10" ry="10" width="117.5" x="288.5" y="2007"></rect><text x="347.25" y="2022">offset&#95;second</text></g><path d="M406.0 2018a10 10 0 0 0 10 -10v-130a10 10 0 0 1 10 -10"></path></g><g>
<path d="M426.0 1868h0.0"></path><path d="M783.5 1868h0.0"></path><path d="M426.0 1868a10 10 0 0 0 10 -10v0a10 10 0 0 1 10 -10"></path><g>
<path d="M446.0 1848h317.5"></path></g><path d="M763.5 1848a10 10 0 0 1 10 10v0a10 10 0 0 0 10 10"></path><path d="M426.0 1868h20"></path><g>
<path d="M446.0 1868h0.0"></path><path d="M763.5 1868h0.0"></path><g class="non-terminal ">
<path d="M446.0 1868h0.0"></path><path d="M526.0 1868h0.0"></path><text class="comment" x="486.0" y="1873">whitespace</text></g><path d="M526.0 1868h10"></path><g>
<path d="M536.0 1868h0.0"></path><path d="M763.5 1868h0.0"></path><path d="M536.0 1868h20"></path><g>
<path d="M556.0 1868h0.0"></path><path d="M743.5 1868h0.0"></path><g class="terminal ">
<path d="M556.0 1868h0.0"></path><path d="M636.0 1868h0.0"></path><rect height="22" rx="10" ry="10" width="80.0" x="556.0" y="1857"></rect><text x="596.0" y="1872">padding:</text></g><path d="M636.0 1868h10"></path><g>
<path d="M646.0 1868h0.0"></path><path d="M743.5 1868h0.0"></path><path d="M646.0 1868h20"></path><g class="terminal ">
<path d="M666.0 1868h3.75"></path><path d="M719.75 1868h3.75"></path><rect height="22" rx="10" ry="10" width="50.0" x="669.75" y="1857"></rect><text x="694.75" y="1872">zero</text></g><path d="M723.5 1868h20"></path><path d="M646.0 1868a10 10 0 0 1 10 10v10a10 10 0 0 0 10 10"></path><g class="terminal ">
<path d="M666.0 1898h0.0"></path><path d="M723.5 1898h0.0"></path><rect height="22" rx="10" ry="10" width="57.5" x="666.0" y="1887"></rect><text x="694.75" y="1902">space</text></g><path d="M723.5 1898a10 10 0 0 0 10 -10v-10a10 10 0 0 1 10 -10"></path><path d="M646.0 1868a10 10 0 0 1 10 10v40a10 10 0 0 0 10 10"></path><g class="terminal ">
<path d="M666.0 1928h3.75"></path><path d="M719.75 1928h3.75"></path><rect height="22" rx="10" ry="10" width="50.0" x="669.75" y="1917"></rect><text x="694.75" y="1932">none</text></g><path d="M723.5 1928a10 10 0 0 0 10 -10v-40a10 10 0 0 1 10 -10"></path></g></g><path d="M743.5 1868h20"></path></g></g><path d="M763.5 1868h20"></path></g></g><path d="M783.5 1868a10 10 0 0 0 10 -10v-1758a10 10 0 0 1 10 -10"></path></g><g>
<path d="M803.5 90h0.0"></path><path d="M923.5 90h0.0"></path><path d="M803.5 90a10 10 0 0 0 10 -10v0a10 10 0 0 1 10 -10"></path><g>
<path d="M823.5 70h80"></path></g><path d="M903.5 70a10 10 0 0 1 10 10v0a10 10 0 0 0 10 10"></path><path d="M803.5 90h20"></path><g class="non-terminal ">
<path d="M823.5 90h0.0"></path><path d="M903.5 90h0.0"></path><text class="comment" x="863.5" y="95">whitespace</text></g><path d="M903.5 90h20"></path></g><path d="M923.5 90h10"></path><g class="terminal ">
<path d="M933.5 90h0.0"></path><path d="M961.0 90h0.0"></path><rect height="22" rx="10" ry="10" width="27.5" x="933.5" y="79"></rect><text x="947.25" y="94">&#93;</text></g></g><path d="M961.0 90h20"></path></g></g><path d="M981.0 90a10 10 0 0 0 10 -10v-49a10 10 0 0 1 10 -10"></path></g><path d="M1001.0 21h10"></path><path d="M51.0 21a10 10 0 0 0 -10 10v1996a10 10 0 0 0 10 10"></path><g>
<path d="M51.0 2037h950.0"></path></g><path d="M1001.0 2037a10 10 0 0 0 10 -10v-1996a10 10 0 0 0 -10 -10"></path></g><path d="M1011.0 21h20"></path></g><path d="M 1031.0 21 h 20 m -10 -10 v 20 m 10 -20 v 20"></path></g></svg>