<svg class="" height="101" viewBox="0 0 514.5 101" width="514.5" xmlns="http://www.w3.org/2000/svg">
<g>
<style>/* <![CDATA[ */

path {
    stroke-width:2;
    stroke:#000;
    fill:transparent;
}
text {
    font:13px monospace;
    text-anchor:middle;
}
text.label{
    text-anchor:start;
}
text.comment{
    font:12px monospace;
    opacity:0.8;
}
rect{
    stroke-width:2;
    stroke:#000;
    fill:transparent;
}
rect.group-box {
    stroke:gray;
    stroke-dasharray:10 5;
    fill:none;
}

/* ]]> */
</style><g>
<path d="M1 11v20m10 -20v20m-10 -10h20"></path></g><path d="M21 21h10"></path><g>
<path d="M31 21h0.0"></path><path d="M483.5 21h0.0"></path><g class="terminal ">
<path d="M31.0 21h0.0"></path><path d="M96.0 21h0.0"></path><rect height="22" rx="10" ry="10" width="65.0" x="31.0" y="10"></rect><text x="63.5" y="25">minute</text></g><path d="M96.0 21h10"></path><g>
<path d="M106.0 21h0.0"></path><path d="M483.5 21h0.0"></path><path d="M106.0 21a10 10 0 0 0 10 -10v0a10 10 0 0 1 10 -10"></path><g>
<path d="M126.0 1h337.5"></path></g><path d="M463.5 1a10 10 0 0 1 10 10v0a10 10 0 0 0 10 10"></path><path d="M106.0 21h20"></path><g>
<path d="M126.0 21h0.0"></path><path d="M463.5 21h0.0"></path><path d="M126.0 21h10"></path><g>
<path d="M136.0 21h0.0"></path><path d="M453.5 21h0.0"></path><g class="non-terminal ">
<path d="M136.0 21h0.0"></path><path d="M216.0 21h0.0"></path><text class="comment" x="176.0" y="26">whitespace</text></g><path d="M216.0 21h10"></path><g>
<path d="M226.0 21h0.0"></path><path d="M453.5 21h0.0"></path><path d="M226.0 21h20"></path><g>
<path d="M246.0 21h0.0"></path><path d="M433.5 21h0.0"></path><g class="terminal ">
<path d="M246.0 21h0.0"></path><path d="M326.0 21h0.0"></path><rect height="22" rx="10" ry="10" width="80.0" x="246.0" y="10"></rect><text x="286.0" y="25">padding:</text></g><path d="M326.0 21h10"></path><g>
<path d="M336.0 21h0.0"></path><path d="M433.5 21h0.0"></path><path d="M336.0 21h20"></path><g class="terminal ">
<path d="M356.0 21h3.75"></path><path d="M409.75 21h3.75"></path><rect height="22" rx="10" ry="10" width="50.0" x="359.75" y="10"></rect><text x="384.75" y="25">zero</text></g><path d="M413.5 21h20"></path><path d="M336.0 21a10 10 0 0 1 10 10v10a10 10 0 0 0 10 10"></path><g class="terminal ">
<path d="M356.0 51h0.0"></path><path d="M413.5 51h0.0"></path><rect height="22" rx="10" ry="10" width="57.5" x="356.0" y="40"></rect><text x="384.75" y="55">space</text></g><path d="M413.5 51a10 10 0 0 0 10 -10v-10a10 10 0 0 1 10 -10"></path><path d="M336.0 21a10 10 0 0 1 10 10v40a10 10 0 0 0 10 10"></path><g class="terminal ">
<path d="M356.0 81h3.75"></path><path d="M409.75 81h3.75"></path><rect height="22" rx="10" ry="10" width="50.0" x="359.75" y="70"></rect><text x="384.75" y="85">none</text></g><path d="M413.5 81a10 10 0 0 0 10 -10v-40a10 10 0 0 1 10 -10"></path></g></g><path d="M433.5 21h20"></path></g></g><path d="M453.5 21h10"></path><path d="M136.0 21a10 10 0 0 0 -10 10v59a10 10 0 0 0 10 10"></path><g>
<path d="M136.0 100h317.5"></path></g><path d="M453.5 100a10 10 0 0 0 10 -10v-59a10 10 0 0 0 -10 -10"></path></g><path d="M463.5 21h20"></path></g></g><path d="M483.5 21h10"></path><path d="M 493.5 21 h 20 m -10 -10 v 20 m 10 -20 v 20"></path></g></svg>