<svg class="" height="251" viewBox="0 0 559.5 251" width="559.5" xmlns="http://www.w3.org/2000/svg">
<g>
<style>/* <![CDATA[ */

path {
    stroke-width:2;
    stroke:#000;
    fill:transparent;
}
text {
    font:13px monospace;
    text-anchor:middle;
}
text.label{
    text-anchor:start;
}
text.comment{
    font:12px monospace;
    opacity:0.8;
}
rect{
    stroke-width:2;
    stroke:#000;
    fill:transparent;
}
rect.group-box {
    stroke:gray;
    stroke-dasharray:10 5;
    fill:none;
}

/* ]]> */
</style><g>
<path d="M1 11v20m10 -20v20m-10 -10h20"></path></g><path d="M21 21h10"></path><g>
<path d="M31 21h0.0"></path><path d="M528.5 21h0.0"></path><g class="terminal ">
<path d="M31.0 21h0.0"></path><path d="M88.5 21h0.0"></path><rect height="22" rx="10" ry="10" width="57.5" x="31.0" y="10"></rect><text x="59.75" y="25">month</text></g><path d="M88.5 21h10"></path><g>
<path d="M98.5 21h0.0"></path><path d="M528.5 21h0.0"></path><path d="M98.5 21a10 10 0 0 0 10 -10v0a10 10 0 0 1 10 -10"></path><g>
<path d="M118.5 1h390.0"></path></g><path d="M508.5 1a10 10 0 0 1 10 10v0a10 10 0 0 0 10 10"></path><path d="M98.5 21h20"></path><g>
<path d="M118.5 21h0.0"></path><path d="M508.5 21h0.0"></path><path d="M118.5 21h10"></path><g>
<path d="M128.5 21h0.0"></path><path d="M498.5 21h0.0"></path><g class="non-terminal ">
<path d="M128.5 21h0.0"></path><path d="M208.5 21h0.0"></path><text class="comment" x="168.5" y="26">whitespace</text></g><path d="M208.5 21h10"></path><g>
<path d="M218.5 21h0.0"></path><path d="M498.5 21h0.0"></path><path d="M218.5 21h20"></path><g>
<path d="M238.5 21h26.25"></path><path d="M452.25 21h26.25"></path><g class="terminal ">
<path d="M264.75 21h0.0"></path><path d="M344.75 21h0.0"></path><rect height="22" rx="10" ry="10" width="80.0" x="264.75" y="10"></rect><text x="304.75" y="25">padding:</text></g><path d="M344.75 21h10"></path><g>
<path d="M354.75 21h0.0"></path><path d="M452.25 21h0.0"></path><path d="M354.75 21h20"></path><g class="terminal ">
<path d="M374.75 21h3.75"></path><path d="M428.5 21h3.75"></path><rect height="22" rx="10" ry="10" width="50.0" x="378.5" y="10"></rect><text x="403.5" y="25">zero</text></g><path d="M432.25 21h20"></path><path d="M354.75 21a10 10 0 0 1 10 10v10a10 10 0 0 0 10 10"></path><g class="terminal ">
<path d="M374.75 51h0.0"></path><path d="M432.25 51h0.0"></path><rect height="22" rx="10" ry="10" width="57.5" x="374.75" y="40"></rect><text x="403.5" y="55">space</text></g><path d="M432.25 51a10 10 0 0 0 10 -10v-10a10 10 0 0 1 10 -10"></path><path d="M354.75 21a10 10 0 0 1 10 10v40a10 10 0 0 0 10 10"></path><g class="terminal ">
<path d="M374.75 81h3.75"></path><path d="M428.5 81h3.75"></path><rect height="22" rx="10" ry="10" width="50.0" x="378.5" y="70"></rect><text x="403.5" y="85">none</text></g><path d="M432.25 81a10 10 0 0 0 10 -10v-40a10 10 0 0 1 10 -10"></path></g></g><path d="M478.5 21h20"></path><path d="M218.5 21a10 10 0 0 1 10 10v70a10 10 0 0 0 10 10"></path><g>
<path d="M238.5 111h22.5"></path><path d="M456.0 111h22.5"></path><g class="terminal ">
<path d="M261.0 111h0.0"></path><path d="M318.5 111h0.0"></path><rect height="22" rx="10" ry="10" width="57.5" x="261.0" y="100"></rect><text x="289.75" y="115">repr:</text></g><path d="M318.5 111h10"></path><g>
<path d="M328.5 111h0.0"></path><path d="M456.0 111h0.0"></path><path d="M328.5 111h20"></path><g class="terminal ">
<path d="M348.5 111h0.0"></path><path d="M436.0 111h0.0"></path><rect height="22" rx="10" ry="10" width="87.5" x="348.5" y="100"></rect><text x="392.25" y="115">numerical</text></g><path d="M436.0 111h20"></path><path d="M328.5 111a10 10 0 0 1 10 10v10a10 10 0 0 0 10 10"></path><g class="terminal ">
<path d="M348.5 141h18.75"></path><path d="M417.25 141h18.75"></path><rect height="22" rx="10" ry="10" width="50.0" x="367.25" y="130"></rect><text x="392.25" y="145">long</text></g><path d="M436.0 141a10 10 0 0 0 10 -10v-10a10 10 0 0 1 10 -10"></path><path d="M328.5 111a10 10 0 0 1 10 10v40a10 10 0 0 0 10 10"></path><g class="terminal ">
<path d="M348.5 171h15.0"></path><path d="M421.0 171h15.0"></path><rect height="22" rx="10" ry="10" width="57.5" x="363.5" y="160"></rect><text x="392.25" y="175">short</text></g><path d="M436.0 171a10 10 0 0 0 10 -10v-40a10 10 0 0 1 10 -10"></path></g></g><path d="M478.5 111a10 10 0 0 0 10 -10v-70a10 10 0 0 1 10 -10"></path><path d="M218.5 21a10 10 0 0 1 10 10v160a10 10 0 0 0 10 10"></path><g>
<path d="M238.5 201h0.0"></path><path d="M478.5 201h0.0"></path><g class="terminal ">
<path d="M238.5 201h0.0"></path><path d="M371.0 201h0.0"></path><rect height="22" rx="10" ry="10" width="132.5" x="238.5" y="190"></rect><text x="304.75" y="205">case&#95;sensitive:</text></g><path d="M371.0 201h10"></path><g>
<path d="M381.0 201h0.0"></path><path d="M478.5 201h0.0"></path><path d="M381.0 201h20"></path><g class="terminal ">
<path d="M401.0 201h3.75"></path><path d="M454.75 201h3.75"></path><rect height="22" rx="10" ry="10" width="50.0" x="404.75" y="190"></rect><text x="429.75" y="205">true</text></g><path d="M458.5 201h20"></path><path d="M381.0 201a10 10 0 0 1 10 10v10a10 10 0 0 0 10 10"></path><g class="terminal ">
<path d="M401.0 231h0.0"></path><path d="M458.5 231h0.0"></path><rect height="22" rx="10" ry="10" width="57.5" x="401.0" y="220"></rect><text x="429.75" y="235">false</text></g><path d="M458.5 231a10 10 0 0 0 10 -10v-10a10 10 0 0 1 10 -10"></path></g></g><path d="M478.5 201a10 10 0 0 0 10 -10v-160a10 10 0 0 1 10 -10"></path></g></g><path d="M498.5 21h10"></path><path d="M128.5 21a10 10 0 0 0 -10 10v209a10 10 0 0 0 10 10"></path><g>
<path d="M128.5 250h370.0"></path></g><path d="M498.5 250a10 10 0 0 0 10 -10v-209a10 10 0 0 0 -10 -10"></path></g><path d="M508.5 21h20"></path></g></g><path d="M528.5 21h10"></path><path d="M 538.5 21 h 20 m -10 -10 v 20 m 10 -20 v 20"></path></g></svg>