<svg class="" height="161" viewBox="0 0 559.5 161" width="559.5" xmlns="http://www.w3.org/2000/svg">
<g>
<style>/* <![CDATA[ */

path {
    stroke-width:2;
    stroke:#000;
    fill:transparent;
}
text {
    font:13px monospace;
    text-anchor:middle;
}
text.label{
    text-anchor:start;
}
text.comment{
    font:12px monospace;
    opacity:0.8;
}
rect{
    stroke-width:2;
    stroke:#000;
    fill:transparent;
}
rect.group-box {
    stroke:gray;
    stroke-dasharray:10 5;
    fill:none;
}

/* ]]> */
</style><g>
<path d="M1 11v20m10 -20v20m-10 -10h20"></path></g><path d="M21 21h10"></path><g>
<path d="M31 21h0.0"></path><path d="M528.5 21h0.0"></path><g class="terminal ">
<path d="M31.0 21h0.0"></path><path d="M133.5 21h0.0"></path><rect height="22" rx="10" ry="10" width="102.5" x="31.0" y="10"></rect><text x="82.25" y="25">offset&#95;hour</text></g><path d="M133.5 21h10"></path><g>
<path d="M143.5 21h0.0"></path><path d="M528.5 21h0.0"></path><path d="M143.5 21a10 10 0 0 0 10 -10v0a10 10 0 0 1 10 -10"></path><g>
<path d="M163.5 1h345.0"></path></g><path d="M508.5 1a10 10 0 0 1 10 10v0a10 10 0 0 0 10 10"></path><path d="M143.5 21h20"></path><g>
<path d="M163.5 21h0.0"></path><path d="M508.5 21h0.0"></path><path d="M163.5 21h10"></path><g>
<path d="M173.5 21h0.0"></path><path d="M498.5 21h0.0"></path><g class="non-terminal ">
<path d="M173.5 21h0.0"></path><path d="M253.5 21h0.0"></path><text class="comment" x="213.5" y="26">whitespace</text></g><path d="M253.5 21h10"></path><g>
<path d="M263.5 21h0.0"></path><path d="M498.5 21h0.0"></path><path d="M263.5 21h20"></path><g>
<path d="M283.5 21h3.75"></path><path d="M474.75 21h3.75"></path><g class="terminal ">
<path d="M287.25 21h0.0"></path><path d="M367.25 21h0.0"></path><rect height="22" rx="10" ry="10" width="80.0" x="287.25" y="10"></rect><text x="327.25" y="25">padding:</text></g><path d="M367.25 21h10"></path><g>
<path d="M377.25 21h0.0"></path><path d="M474.75 21h0.0"></path><path d="M377.25 21h20"></path><g class="terminal ">
<path d="M397.25 21h3.75"></path><path d="M451.0 21h3.75"></path><rect height="22" rx="10" ry="10" width="50.0" x="401.0" y="10"></rect><text x="426.0" y="25">zero</text></g><path d="M454.75 21h20"></path><path d="M377.25 21a10 10 0 0 1 10 10v10a10 10 0 0 0 10 10"></path><g class="terminal ">
<path d="M397.25 51h0.0"></path><path d="M454.75 51h0.0"></path><rect height="22" rx="10" ry="10" width="57.5" x="397.25" y="40"></rect><text x="426.0" y="55">space</text></g><path d="M454.75 51a10 10 0 0 0 10 -10v-10a10 10 0 0 1 10 -10"></path><path d="M377.25 21a10 10 0 0 1 10 10v40a10 10 0 0 0 10 10"></path><g class="terminal ">
<path d="M397.25 81h3.75"></path><path d="M451.0 81h3.75"></path><rect height="22" rx="10" ry="10" width="50.0" x="401.0" y="70"></rect><text x="426.0" y="85">none</text></g><path d="M454.75 81a10 10 0 0 0 10 -10v-40a10 10 0 0 1 10 -10"></path></g></g><path d="M478.5 21h20"></path><path d="M263.5 21a10 10 0 0 1 10 10v70a10 10 0 0 0 10 10"></path><g>
<path d="M283.5 111h0.0"></path><path d="M478.5 111h0.0"></path><g class="terminal ">
<path d="M283.5 111h0.0"></path><path d="M341.0 111h0.0"></path><rect height="22" rx="10" ry="10" width="57.5" x="283.5" y="100"></rect><text x="312.25" y="115">sign:</text></g><path d="M341.0 111h10"></path><g>
<path d="M351.0 111h0.0"></path><path d="M478.5 111h0.0"></path><path d="M351.0 111h20"></path><g class="terminal ">
<path d="M371.0 111h0.0"></path><path d="M458.5 111h0.0"></path><rect height="22" rx="10" ry="10" width="87.5" x="371.0" y="100"></rect><text x="414.75" y="115">automatic</text></g><path d="M458.5 111h20"></path><path d="M351.0 111a10 10 0 0 1 10 10v10a10 10 0 0 0 10 10"></path><g class="terminal ">
<path d="M371.0 141h0.0"></path><path d="M458.5 141h0.0"></path><rect height="22" rx="10" ry="10" width="87.5" x="371.0" y="130"></rect><text x="414.75" y="145">mandatory</text></g><path d="M458.5 141a10 10 0 0 0 10 -10v-10a10 10 0 0 1 10 -10"></path></g></g><path d="M478.5 111a10 10 0 0 0 10 -10v-70a10 10 0 0 1 10 -10"></path></g></g><path d="M498.5 21h10"></path><path d="M173.5 21a10 10 0 0 0 -10 10v119a10 10 0 0 0 10 10"></path><g>
<path d="M173.5 160h325.0"></path></g><path d="M498.5 160a10 10 0 0 0 10 -10v-119a10 10 0 0 0 -10 -10"></path></g><path d="M508.5 21h20"></path></g></g><path d="M528.5 21h10"></path><path d="M 538.5 21 h 20 m -10 -10 v 20 m 10 -20 v 20"></path></g></svg>