<svg class="" height="101" viewBox="0 0 567.0 101" width="567.0" xmlns="http://www.w3.org/2000/svg">
<g>
<style>/* <![CDATA[ */

path {
    stroke-width:2;
    stroke:#000;
    fill:transparent;
}
text {
    font:13px monospace;
    text-anchor:middle;
}
text.label{
    text-anchor:start;
}
text.comment{
    font:12px monospace;
    opacity:0.8;
}
rect{
    stroke-width:2;
    stroke:#000;
    fill:transparent;
}
rect.group-box {
    stroke:gray;
    stroke-dasharray:10 5;
    fill:none;
}

/* ]]> */
</style><g>
<path d="M1 11v20m10 -20v20m-10 -10h20"></path></g><path d="M21 21h10"></path><g>
<path d="M31 21h0.0"></path><path d="M536.0 21h0.0"></path><g class="terminal ">
<path d="M31.0 21h0.0"></path><path d="M148.5 21h0.0"></path><rect height="22" rx="10" ry="10" width="117.5" x="31.0" y="10"></rect><text x="89.75" y="25">offset&#95;second</text></g><path d="M148.5 21h10"></path><g>
<path d="M158.5 21h0.0"></path><path d="M536.0 21h0.0"></path><path d="M158.5 21a10 10 0 0 0 10 -10v0a10 10 0 0 1 10 -10"></path><g>
<path d="M178.5 1h337.5"></path></g><path d="M516.0 1a10 10 0 0 1 10 10v0a10 10 0 0 0 10 10"></path><path d="M158.5 21h20"></path><g>
<path d="M178.5 21h0.0"></path><path d="M516.0 21h0.0"></path><path d="M178.5 21h10"></path><g>
<path d="M188.5 21h0.0"></path><path d="M506.0 21h0.0"></path><g class="non-terminal ">
<path d="M188.5 21h0.0"></path><path d="M268.5 21h0.0"></path><text class="comment" x="228.5" y="26">whitespace</text></g><path d="M268.5 21h10"></path><g>
<path d="M278.5 21h0.0"></path><path d="M506.0 21h0.0"></path><path d="M278.5 21h20"></path><g>
<path d="M298.5 21h0.0"></path><path d="M486.0 21h0.0"></path><g class="terminal ">
<path d="M298.5 21h0.0"></path><path d="M378.5 21h0.0"></path><rect height="22" rx="10" ry="10" width="80.0" x="298.5" y="10"></rect><text x="338.5" y="25">padding:</text></g><path d="M378.5 21h10"></path><g>
<path d="M388.5 21h0.0"></path><path d="M486.0 21h0.0"></path><path d="M388.5 21h20"></path><g class="terminal ">
<path d="M408.5 21h3.75"></path><path d="M462.25 21h3.75"></path><rect height="22" rx="10" ry="10" width="50.0" x="412.25" y="10"></rect><text x="437.25" y="25">zero</text></g><path d="M466.0 21h20"></path><path d="M388.5 21a10 10 0 0 1 10 10v10a10 10 0 0 0 10 10"></path><g class="terminal ">
<path d="M408.5 51h0.0"></path><path d="M466.0 51h0.0"></path><rect height="22" rx="10" ry="10" width="57.5" x="408.5" y="40"></rect><text x="437.25" y="55">space</text></g><path d="M466.0 51a10 10 0 0 0 10 -10v-10a10 10 0 0 1 10 -10"></path><path d="M388.5 21a10 10 0 0 1 10 10v40a10 10 0 0 0 10 10"></path><g class="terminal ">
<path d="M408.5 81h3.75"></path><path d="M462.25 81h3.75"></path><rect height="22" rx="10" ry="10" width="50.0" x="412.25" y="70"></rect><text x="437.25" y="85">none</text></g><path d="M466.0 81a10 10 0 0 0 10 -10v-40a10 10 0 0 1 10 -10"></path></g></g><path d="M486.0 21h20"></path></g></g><path d="M506.0 21h10"></path><path d="M188.5 21a10 10 0 0 0 -10 10v59a10 10 0 0 0 10 10"></path><g>
<path d="M188.5 100h317.5"></path></g><path d="M506.0 100a10 10 0 0 0 10 -10v-59a10 10 0 0 0 -10 -10"></path></g><path d="M516.0 21h20"></path></g></g><path d="M536.0 21h10"></path><path d="M 546.0 21 h 20 m -10 -10 v 20 m 10 -20 v 20"></path></g></svg>