<svg class="" height="101" viewBox="0 0 522.0 101" width="522.0" xmlns="http://www.w3.org/2000/svg">
<g>
<style>/* <![CDATA[ */

path {
    stroke-width:2;
    stroke:#000;
    fill:transparent;
}
text {
    font:13px monospace;
    text-anchor:middle;
}
text.label{
    text-anchor:start;
}
text.comment{
    font:12px monospace;
    opacity:0.8;
}
rect{
    stroke-width:2;
    stroke:#000;
    fill:transparent;
}
rect.group-box {
    stroke:gray;
    stroke-dasharray:10 5;
    fill:none;
}

/* ]]> */
</style><g>
<path d="M1 11v20m10 -20v20m-10 -10h20"></path></g><path d="M21 21h10"></path><g>
<path d="M31 21h0.0"></path><path d="M491.0 21h0.0"></path><g class="terminal ">
<path d="M31.0 21h0.0"></path><path d="M103.5 21h0.0"></path><rect height="22" rx="10" ry="10" width="72.5" x="31.0" y="10"></rect><text x="67.25" y="25">ordinal</text></g><path d="M103.5 21h10"></path><g>
<path d="M113.5 21h0.0"></path><path d="M491.0 21h0.0"></path><path d="M113.5 21a10 10 0 0 0 10 -10v0a10 10 0 0 1 10 -10"></path><g>
<path d="M133.5 1h337.5"></path></g><path d="M471.0 1a10 10 0 0 1 10 10v0a10 10 0 0 0 10 10"></path><path d="M113.5 21h20"></path><g>
<path d="M133.5 21h0.0"></path><path d="M471.0 21h0.0"></path><path d="M133.5 21h10"></path><g>
<path d="M143.5 21h0.0"></path><path d="M461.0 21h0.0"></path><g class="non-terminal ">
<path d="M143.5 21h0.0"></path><path d="M223.5 21h0.0"></path><text class="comment" x="183.5" y="26">whitespace</text></g><path d="M223.5 21h10"></path><g>
<path d="M233.5 21h0.0"></path><path d="M461.0 21h0.0"></path><path d="M233.5 21h20"></path><g>
<path d="M253.5 21h0.0"></path><path d="M441.0 21h0.0"></path><g class="terminal ">
<path d="M253.5 21h0.0"></path><path d="M333.5 21h0.0"></path><rect height="22" rx="10" ry="10" width="80.0" x="253.5" y="10"></rect><text x="293.5" y="25">padding:</text></g><path d="M333.5 21h10"></path><g>
<path d="M343.5 21h0.0"></path><path d="M441.0 21h0.0"></path><path d="M343.5 21h20"></path><g class="terminal ">
<path d="M363.5 21h3.75"></path><path d="M417.25 21h3.75"></path><rect height="22" rx="10" ry="10" width="50.0" x="367.25" y="10"></rect><text x="392.25" y="25">zero</text></g><path d="M421.0 21h20"></path><path d="M343.5 21a10 10 0 0 1 10 10v10a10 10 0 0 0 10 10"></path><g class="terminal ">
<path d="M363.5 51h0.0"></path><path d="M421.0 51h0.0"></path><rect height="22" rx="10" ry="10" width="57.5" x="363.5" y="40"></rect><text x="392.25" y="55">space</text></g><path d="M421.0 51a10 10 0 0 0 10 -10v-10a10 10 0 0 1 10 -10"></path><path d="M343.5 21a10 10 0 0 1 10 10v40a10 10 0 0 0 10 10"></path><g class="terminal ">
<path d="M363.5 81h3.75"></path><path d="M417.25 81h3.75"></path><rect height="22" rx="10" ry="10" width="50.0" x="367.25" y="70"></rect><text x="392.25" y="85">none</text></g><path d="M421.0 81a10 10 0 0 0 10 -10v-40a10 10 0 0 1 10 -10"></path></g></g><path d="M441.0 21h20"></path></g></g><path d="M461.0 21h10"></path><path d="M143.5 21a10 10 0 0 0 -10 10v59a10 10 0 0 0 10 10"></path><g>
<path d="M143.5 100h317.5"></path></g><path d="M461.0 100a10 10 0 0 0 10 -10v-59a10 10 0 0 0 -10 -10"></path></g><path d="M471.0 21h20"></path></g></g><path d="M491.0 21h10"></path><path d="M 501.0 21 h 20 m -10 -10 v 20 m 10 -20 v 20"></path></g></svg>