<svg class="" height="131" viewBox="0 0 567.0 131" width="567.0" xmlns="http://www.w3.org/2000/svg">
<g>
<style>/* <![CDATA[ */

path {
    stroke-width:2;
    stroke:#000;
    fill:transparent;
}
text {
    font:13px monospace;
    text-anchor:middle;
}
text.label{
    text-anchor:start;
}
text.comment{
    font:12px monospace;
    opacity:0.8;
}
rect{
    stroke-width:2;
    stroke:#000;
    fill:transparent;
}
rect.group-box {
    stroke:gray;
    stroke-dasharray:10 5;
    fill:none;
}

/* ]]> */
</style><g>
<path d="M1 11v20m10 -20v20m-10 -10h20"></path></g><path d="M21 21h10"></path><g>
<path d="M31 21h0.0"></path><path d="M536.0 21h0.0"></path><g class="terminal ">
<path d="M31.0 21h0.0"></path><path d="M96.0 21h0.0"></path><rect height="22" rx="10" ry="10" width="65.0" x="31.0" y="10"></rect><text x="63.5" y="25">period</text></g><path d="M96.0 21h10"></path><g>
<path d="M106.0 21h0.0"></path><path d="M536.0 21h0.0"></path><path d="M106.0 21a10 10 0 0 0 10 -10v0a10 10 0 0 1 10 -10"></path><g>
<path d="M126.0 1h390.0"></path></g><path d="M516.0 1a10 10 0 0 1 10 10v0a10 10 0 0 0 10 10"></path><path d="M106.0 21h20"></path><g>
<path d="M126.0 21h0.0"></path><path d="M516.0 21h0.0"></path><path d="M126.0 21h10"></path><g>
<path d="M136.0 21h0.0"></path><path d="M506.0 21h0.0"></path><g class="non-terminal ">
<path d="M136.0 21h0.0"></path><path d="M216.0 21h0.0"></path><text class="comment" x="176.0" y="26">whitespace</text></g><path d="M216.0 21h10"></path><g>
<path d="M226.0 21h0.0"></path><path d="M506.0 21h0.0"></path><path d="M226.0 21h20"></path><g>
<path d="M246.0 21h37.5"></path><path d="M448.5 21h37.5"></path><g class="terminal ">
<path d="M283.5 21h0.0"></path><path d="M341.0 21h0.0"></path><rect height="22" rx="10" ry="10" width="57.5" x="283.5" y="10"></rect><text x="312.25" y="25">case:</text></g><path d="M341.0 21h10"></path><g>
<path d="M351.0 21h0.0"></path><path d="M448.5 21h0.0"></path><path d="M351.0 21h20"></path><g class="terminal ">
<path d="M371.0 21h0.0"></path><path d="M428.5 21h0.0"></path><rect height="22" rx="10" ry="10" width="57.5" x="371.0" y="10"></rect><text x="399.75" y="25">lower</text></g><path d="M428.5 21h20"></path><path d="M351.0 21a10 10 0 0 1 10 10v10a10 10 0 0 0 10 10"></path><g class="terminal ">
<path d="M371.0 51h0.0"></path><path d="M428.5 51h0.0"></path><rect height="22" rx="10" ry="10" width="57.5" x="371.0" y="40"></rect><text x="399.75" y="55">upper</text></g><path d="M428.5 51a10 10 0 0 0 10 -10v-10a10 10 0 0 1 10 -10"></path></g></g><path d="M486.0 21h20"></path><path d="M226.0 21a10 10 0 0 1 10 10v40a10 10 0 0 0 10 10"></path><g>
<path d="M246.0 81h0.0"></path><path d="M486.0 81h0.0"></path><g class="terminal ">
<path d="M246.0 81h0.0"></path><path d="M378.5 81h0.0"></path><rect height="22" rx="10" ry="10" width="132.5" x="246.0" y="70"></rect><text x="312.25" y="85">case&#95;sensitive:</text></g><path d="M378.5 81h10"></path><g>
<path d="M388.5 81h0.0"></path><path d="M486.0 81h0.0"></path><path d="M388.5 81h20"></path><g class="terminal ">
<path d="M408.5 81h3.75"></path><path d="M462.25 81h3.75"></path><rect height="22" rx="10" ry="10" width="50.0" x="412.25" y="70"></rect><text x="437.25" y="85">true</text></g><path d="M466.0 81h20"></path><path d="M388.5 81a10 10 0 0 1 10 10v10a10 10 0 0 0 10 10"></path><g class="terminal ">
<path d="M408.5 111h0.0"></path><path d="M466.0 111h0.0"></path><rect height="22" rx="10" ry="10" width="57.5" x="408.5" y="100"></rect><text x="437.25" y="115">false</text></g><path d="M466.0 111a10 10 0 0 0 10 -10v-10a10 10 0 0 1 10 -10"></path></g></g><path d="M486.0 81a10 10 0 0 0 10 -10v-40a10 10 0 0 1 10 -10"></path></g></g><path d="M506.0 21h10"></path><path d="M136.0 21a10 10 0 0 0 -10 10v89a10 10 0 0 0 10 10"></path><g>
<path d="M136.0 130h370.0"></path></g><path d="M506.0 130a10 10 0 0 0 10 -10v-89a10 10 0 0 0 -10 -10"></path></g><path d="M516.0 21h20"></path></g></g><path d="M536.0 21h10"></path><path d="M 546.0 21 h 20 m -10 -10 v 20 m 10 -20 v 20"></path></g></svg>