<svg class="" height="251" viewBox="0 0 574.5 251" width="574.5" xmlns="http://www.w3.org/2000/svg">
<g>
<style>/* <![CDATA[ */

path {
    stroke-width:2;
    stroke:#000;
    fill:transparent;
}
text {
    font:13px monospace;
    text-anchor:middle;
}
text.label{
    text-anchor:start;
}
text.comment{
    font:12px monospace;
    opacity:0.8;
}
rect{
    stroke-width:2;
    stroke:#000;
    fill:transparent;
}
rect.group-box {
    stroke:gray;
    stroke-dasharray:10 5;
    fill:none;
}

/* ]]> */
</style><g>
<path d="M1 11v20m10 -20v20m-10 -10h20"></path></g><path d="M21 21h10"></path><g>
<path d="M31 21h0.0"></path><path d="M543.5 21h0.0"></path><g class="terminal ">
<path d="M31.0 21h0.0"></path><path d="M103.5 21h0.0"></path><rect height="22" rx="10" ry="10" width="72.5" x="31.0" y="10"></rect><text x="67.25" y="25">weekday</text></g><path d="M103.5 21h10"></path><g>
<path d="M113.5 21h0.0"></path><path d="M543.5 21h0.0"></path><path d="M113.5 21a10 10 0 0 0 10 -10v0a10 10 0 0 1 10 -10"></path><g>
<path d="M133.5 1h390.0"></path></g><path d="M523.5 1a10 10 0 0 1 10 10v0a10 10 0 0 0 10 10"></path><path d="M113.5 21h20"></path><g>
<path d="M133.5 21h0.0"></path><path d="M523.5 21h0.0"></path><path d="M133.5 21h10"></path><g>
<path d="M143.5 21h0.0"></path><path d="M513.5 21h0.0"></path><g class="non-terminal ">
<path d="M143.5 21h0.0"></path><path d="M223.5 21h0.0"></path><text class="comment" x="183.5" y="26">whitespace</text></g><path d="M223.5 21h10"></path><g>
<path d="M233.5 21h0.0"></path><path d="M513.5 21h0.0"></path><path d="M233.5 21h20"></path><g>
<path d="M253.5 21h33.75"></path><path d="M459.75 21h33.75"></path><g class="terminal ">
<path d="M287.25 21h0.0"></path><path d="M344.75 21h0.0"></path><rect height="22" rx="10" ry="10" width="57.5" x="287.25" y="10"></rect><text x="316.0" y="25">repr:</text></g><path d="M344.75 21h10"></path><g>
<path d="M354.75 21h0.0"></path><path d="M459.75 21h0.0"></path><path d="M354.75 21h20"></path><g class="terminal ">
<path d="M374.75 21h7.5"></path><path d="M432.25 21h7.5"></path><rect height="22" rx="10" ry="10" width="50.0" x="382.25" y="10"></rect><text x="407.25" y="25">long</text></g><path d="M439.75 21h20"></path><path d="M354.75 21a10 10 0 0 1 10 10v10a10 10 0 0 0 10 10"></path><g class="terminal ">
<path d="M374.75 51h3.75"></path><path d="M436.0 51h3.75"></path><rect height="22" rx="10" ry="10" width="57.5" x="378.5" y="40"></rect><text x="407.25" y="55">short</text></g><path d="M439.75 51a10 10 0 0 0 10 -10v-10a10 10 0 0 1 10 -10"></path><path d="M354.75 21a10 10 0 0 1 10 10v40a10 10 0 0 0 10 10"></path><g class="terminal ">
<path d="M374.75 81h0.0"></path><path d="M439.75 81h0.0"></path><rect height="22" rx="10" ry="10" width="65.0" x="374.75" y="70"></rect><text x="407.25" y="85">sunday</text></g><path d="M439.75 81a10 10 0 0 0 10 -10v-40a10 10 0 0 1 10 -10"></path><path d="M354.75 21a10 10 0 0 1 10 10v70a10 10 0 0 0 10 10"></path><g class="terminal ">
<path d="M374.75 111h0.0"></path><path d="M439.75 111h0.0"></path><rect height="22" rx="10" ry="10" width="65.0" x="374.75" y="100"></rect><text x="407.25" y="115">monday</text></g><path d="M439.75 111a10 10 0 0 0 10 -10v-70a10 10 0 0 1 10 -10"></path></g></g><path d="M493.5 21h20"></path><path d="M233.5 21a10 10 0 0 1 10 10v100a10 10 0 0 0 10 10"></path><g>
<path d="M253.5 141h11.25"></path><path d="M482.25 141h11.25"></path><g class="terminal ">
<path d="M264.75 141h0.0"></path><path d="M374.75 141h0.0"></path><rect height="22" rx="10" ry="10" width="110.0" x="264.75" y="130"></rect><text x="319.75" y="145">one&#95;indexed:</text></g><path d="M374.75 141h10"></path><g>
<path d="M384.75 141h0.0"></path><path d="M482.25 141h0.0"></path><path d="M384.75 141h20"></path><g class="terminal ">
<path d="M404.75 141h0.0"></path><path d="M462.25 141h0.0"></path><rect height="22" rx="10" ry="10" width="57.5" x="404.75" y="130"></rect><text x="433.5" y="145">false</text></g><path d="M462.25 141h20"></path><path d="M384.75 141a10 10 0 0 1 10 10v10a10 10 0 0 0 10 10"></path><g class="terminal ">
<path d="M404.75 171h3.75"></path><path d="M458.5 171h3.75"></path><rect height="22" rx="10" ry="10" width="50.0" x="408.5" y="160"></rect><text x="433.5" y="175">true</text></g><path d="M462.25 171a10 10 0 0 0 10 -10v-10a10 10 0 0 1 10 -10"></path></g></g><path d="M493.5 141a10 10 0 0 0 10 -10v-100a10 10 0 0 1 10 -10"></path><path d="M233.5 21a10 10 0 0 1 10 10v160a10 10 0 0 0 10 10"></path><g>
<path d="M253.5 201h0.0"></path><path d="M493.5 201h0.0"></path><g class="terminal ">
<path d="M253.5 201h0.0"></path><path d="M386.0 201h0.0"></path><rect height="22" rx="10" ry="10" width="132.5" x="253.5" y="190"></rect><text x="319.75" y="205">case&#95;sensitive:</text></g><path d="M386.0 201h10"></path><g>
<path d="M396.0 201h0.0"></path><path d="M493.5 201h0.0"></path><path d="M396.0 201h20"></path><g class="terminal ">
<path d="M416.0 201h3.75"></path><path d="M469.75 201h3.75"></path><rect height="22" rx="10" ry="10" width="50.0" x="419.75" y="190"></rect><text x="444.75" y="205">true</text></g><path d="M473.5 201h20"></path><path d="M396.0 201a10 10 0 0 1 10 10v10a10 10 0 0 0 10 10"></path><g class="terminal ">
<path d="M416.0 231h0.0"></path><path d="M473.5 231h0.0"></path><rect height="22" rx="10" ry="10" width="57.5" x="416.0" y="220"></rect><text x="444.75" y="235">false</text></g><path d="M473.5 231a10 10 0 0 0 10 -10v-10a10 10 0 0 1 10 -10"></path></g></g><path d="M493.5 201a10 10 0 0 0 10 -10v-160a10 10 0 0 1 10 -10"></path></g></g><path d="M513.5 21h10"></path><path d="M143.5 21a10 10 0 0 0 -10 10v209a10 10 0 0 0 10 10"></path><g>
<path d="M143.5 250h370.0"></path></g><path d="M513.5 250a10 10 0 0 0 10 -10v-209a10 10 0 0 0 -10 -10"></path></g><path d="M523.5 21h20"></path></g></g><path d="M543.5 21h10"></path><path d="M 553.5 21 h 20 m -10 -10 v 20 m 10 -20 v 20"></path></g></svg>